<svg xmlns="http://www.w3.org/2000/svg" xmlns:xlink="http://www.w3.org/1999/xlink" viewBox="0 0 672.2 130.7"><path fill="#777679" d="M213.8 111.1l-3.9 9.3-3.7-9.3h-2.8l5.2 11.9v7.3h2.5V123l5.2-11.9z"/><defs><path id="a" d="M0 0h672.2v130.7H0z"/></defs><clipPath id="b"><use xlink:href="#a" overflow="visible"/></clipPath><path clip-path="url(#b)" fill="#777679" d="M229.3 123.3V117c0-3.8 2-6.3 6.1-6.3s6.1 2.5 6.1 6.3v6.3c0 5.3-2 7.4-6.1 7.4s-6.1-2.1-6.1-7.4m9.6.1v-6.5c0-4-2.8-4.2-3.5-4.2-.8 0-3.5.1-3.5 4.2v6.5c0 4.2 1.2 5.3 3.5 5.3s3.5-1.1 3.5-5.3m17.4-12.3h2.5v12.3c0 4.2 1.3 5.3 3.6 5.3s3.6-1.1 3.6-5.3v-12.3h2.5v12.2c0 5.3-2 7.4-6.1 7.4s-6-2.1-6-7.4v-12.2zm29.4 10.4v8.8h-2.5v-19.2h6.6c3.4 0 4.6 2.4 4.6 4.8 0 2.3-1.3 4-3.5 4.4v.1c2.2.3 3 1.1 3.1 5 0 .8.3 3.8.7 5h-2.6c-.7-1.3-.5-3.8-.7-6.4-.2-2.3-2.1-2.5-2.9-2.5h-2.8zm0-2.2h3.7c1.8 0 2.6-1.5 2.6-3.2 0-1.4-.7-2.9-2.6-2.9h-3.7v6.1zm41.6 5.3v.6c0 2.6 1.7 3.4 3.2 3.4 1.9 0 3.4-.8 3.4-3.1 0-4.3-8.6-3.8-8.6-9.6 0-3.4 2.4-5.2 5.7-5.2 3.5 0 5.5 1.7 5.3 5.6h-2.6c0-2.1-.6-3.5-3-3.5-1.5 0-3 .7-3 2.8 0 4.2 8.6 3.6 8.6 9.7 0 4.1-2.8 5.4-6 5.4-5.7.1-5.7-4.3-5.6-6.1h2.6zm23.7 5.7v-19.2h2.5v8.3h6.7v-8.3h2.5v19.2h-2.5v-8.8h-6.7v8.8zm27.1-19.2h2.5v19.2h-2.5zm18.1 19.2v-19.2h5.7c2.6 0 5.4 1 5.4 5.5 0 4.4-3.4 5.3-5.4 5.3h-3.2v8.5h-2.5zm2.5-10.6h2.7c1 0 3.4-.3 3.4-3.3 0-2.9-2.2-3.2-2.7-3.2h-3.4v6.5zm23 10.6v-19.2h5.7c2.6 0 5.4 1 5.4 5.5 0 4.4-3.4 5.3-5.4 5.3h-3.2v8.5h-2.5zm2.5-10.6h2.7c1 0 3.4-.3 3.4-3.3 0-2.9-2.2-3.2-2.7-3.2h-3.4v6.5zm23-8.6h2.5v19.2h-2.5zm31.1 0v19.2h-3.4l-7.6-16.7v16.7h-2.2v-19.2h3.5l7.4 16.5h.1v-16.5zm24.3 5.1c0-2.3-.9-3.5-3.4-3.5-.8 0-3.5.1-3.5 4.2v6.5c0 4.2 1.2 5.3 3.5 5.3 1.8 0 2.9-.5 3.4-.9V122h-3.5v-2.1h6v9.4c-1.6.9-3.4 1.4-5.9 1.4-4.1 0-6.1-2.1-6.1-7.4V117c0-3.8 2-6.3 6.1-6.3 4.2 0 6.1 1.5 6 5.5h-2.6zm34.3 14.1v-19.2h10v2.1h-7.5v6.2h6.9v2.1h-6.9v6.7h7.6v2.1zm36.4 0h-3l-4.5-8.2-4.2 8.2h-2.7l5.6-9.9-5.3-9.3h2.9l3.9 7.4 4-7.4h2.7l-5.2 9.3zm13.5 0v-19.2h5.7c2.6 0 5.4 1 5.4 5.5 0 4.4-3.4 5.3-5.4 5.3h-3.2v8.5h-2.5zm2.4-10.6h2.7c1 0 3.4-.3 3.4-3.3 0-2.9-2.2-3.2-2.7-3.2h-3.4v6.5zm22.7 10.6v-19.2h9.9v2.1h-7.4v6.2h6.9v2.1h-6.9v6.7h7.6v2.1zm26.4-8.8v8.8h-2.5v-19.2h6.6c3.4 0 4.6 2.4 4.6 4.8 0 2.3-1.3 4-3.5 4.4v.1c2.2.3 3 1.1 3.1 5 0 .8.3 3.8.7 5h-2.6c-.7-1.3-.5-3.8-.7-6.4-.2-2.3-2.1-2.5-2.9-2.5h-2.8zm0-2.2h3.7c1.8 0 2.6-1.5 2.6-3.2 0-1.4-.7-2.9-2.6-2.9h-3.7v6.1zm33.9-8.2v2.1h-5.1v17.1h-2.4v-17.1h-5.1v-2.1z"/><path clip-path="url(#b)" fill="#2A3A5D" d="M230.6 86.3h-27.1V.8h27.3c16.7 0 24.7 10.9 24.7 21.3 0 7.4-3.6 14.3-10.6 17.8v.1c9.5 2.2 16.2 10.5 16.2 20.6-.1 12.2-9 25.7-30.5 25.7M226.8 14h-7.7v22.3h9.3c5.6 0 11.2-4.5 11.2-11.3.1-6.4-4.1-11-12.8-11m3 35.5h-10.6v23.6h10c10.5 0 15.7-4.7 15.7-12.5 0-6.6-5.5-11.1-15.1-11.1m127.7 25.8c-7.8 7.8-18.6 12.3-31.4 12.3-12.5 0-22.7-3.6-30.3-10.5-8.7-7.8-13.5-19.3-13.5-32.7 0-12.7 4.4-23.9 12.3-31.9C302.4 4.7 313.1 0 326.1 0c13.8 0 25.2 4.8 32.8 13.2 7.1 7.8 10.8 18.4 10.8 30.4 0 12.6-4.2 23.9-12.2 31.7M326 13.1c-16 0-27.1 11.6-27.1 30.8 0 19.3 11.2 30.9 27.1 30.9 15.8 0 27-11.6 27-30.9 0-18.7-10.6-30.8-27-30.8M459.1.8h-17.2l-20.6 31.1L401.7.8H384l26.4 41.8-30 43.7h17.5L419.6 54l20.5 32.3H458l-27.5-42.7 19.8-29.7h26.9v72.4h15.9V13.9h23.3L522 .7zm127.3 85.5L578 64.9h-30.5l-7.9 21.4h-15.4L557.4.4h11.4l34.4 85.9h-16.8zm-20.3-53.8c-1.6-4.3-2.6-7.8-3.2-10.6h-.1c-.5 3-1.7 6.4-3.1 10.4l-7.4 19.9H573l-6.9-19.7zm59.8 53.8V.8h15.7v72.3h30.6v13.2z"/><path clip-path="url(#b)" fill="#A42636" d="M171.9 39.2H21.2c-3.8 0-6.8 3.1-6.8 6.8s3.1 6.8 6.8 6.8h150.6c3.8 0 6.8-3.1 6.8-6.8s-3-6.8-6.7-6.8"/><path clip-path="url(#b)" fill="#293A5D" d="M107.3 77.6H6.8C3 77.6 0 80.7 0 84.4s3.1 6.8 6.8 6.8h100.4c3.8 0 6.8-3.1 6.8-6.8s-3-6.8-6.7-6.8m54.8 38.3H61.6c-3.8 0-6.8 3.1-6.8 6.8 0 3.8 3.1 6.8 6.8 6.8H162c3.8 0 6.8-3.1 6.8-6.8.1-3.7-3-6.8-6.7-6.8M130.5.8H57.3c-3.8 0-6.8 3.1-6.8 6.8s3.1 6.8 6.8 6.8h73.2c3.8 0 6.8-3.1 6.8-6.8s-3-6.8-6.8-6.8"/></svg>